<svg width="24" height="24" viewBox="0 0 24 24" fill="none" xmlns="http://www.w3.org/2000/svg">
<rect width="24" height="24" rx="12" fill="#1D2028"/>
<path d="M8.82459 16.084C8.04859 16.084 7.34059 15.904 6.70059 15.544C6.06059 15.176 5.55259 14.668 5.17659 14.02C4.80859 13.364 4.62459 12.628 4.62459 11.812C4.62459 10.996 4.80859 10.264 5.17659 9.616C5.55259 8.96 6.06059 8.452 6.70059 8.092C7.34059 7.724 8.04859 7.54 8.82459 7.54C9.60859 7.54 10.3206 7.724 10.9606 8.092C11.6006 8.452 12.1046 8.956 12.4726 9.604C12.8406 10.252 13.0246 10.988 13.0246 11.812C13.0246 12.636 12.8406 13.372 12.4726 14.02C12.1046 14.668 11.6006 15.176 10.9606 15.544C10.3206 15.904 9.60859 16.084 8.82459 16.084ZM8.82459 15.136C9.40859 15.136 9.93259 15 10.3966 14.728C10.8686 14.456 11.2366 14.068 11.5006 13.564C11.7726 13.06 11.9086 12.476 11.9086 11.812C11.9086 11.14 11.7726 10.556 11.5006 10.06C11.2366 9.556 10.8726 9.168 10.4086 8.896C9.94459 8.624 9.41659 8.488 8.82459 8.488C8.23259 8.488 7.70459 8.624 7.24059 8.896C6.77659 9.168 6.40859 9.556 6.13659 10.06C5.87259 10.556 5.74059 11.14 5.74059 11.812C5.74059 12.476 5.87259 13.06 6.13659 13.564C6.40859 14.068 6.77659 14.456 7.24059 14.728C7.71259 15 8.24059 15.136 8.82459 15.136ZM20.4582 10.084C20.4582 10.78 20.2182 11.36 19.7382 11.824C19.2662 12.28 18.5422 12.508 17.5662 12.508H15.9582V16H14.8662V7.636H17.5662C18.5102 7.636 19.2262 7.864 19.7142 8.32C20.2102 8.776 20.4582 9.364 20.4582 10.084ZM17.5662 11.608C18.1742 11.608 18.6222 11.476 18.9102 11.212C19.1982 10.948 19.3422 10.572 19.3422 10.084C19.3422 9.052 18.7502 8.536 17.5662 8.536H15.9582V11.608H17.5662Z" fill="white"/>
</svg>
